<svg width="382" height="422" viewBox="0 0 382 422" fill="none" xmlns="http://www.w3.org/2000/svg">
<path d="M132.216 101.663C131.473 100.516 129.97 101.141 129.97 102.391C129.97 103.329 132.031 104.797 132.216 104.988C132.402 104.797 134.36 103.329 134.36 102.391C134.36 101.151 132.96 100.516 132.216 101.663Z" fill="#FFBCBC"/>
<circle cx="132.165" cy="103.024" r="4.86306" stroke="#F7F7F7" stroke-width="0.321779"/>
<path d="M242.649 79.444C239.077 73.9268 231.848 76.9324 231.848 82.9424C231.848 87.4556 241.759 94.5153 242.649 95.4333C243.545 94.5153 252.963 87.4556 252.963 82.9424C252.963 76.9779 246.228 73.9268 242.649 79.444Z" fill="#FFBCBC"/>
<circle cx="242.406" cy="85.9868" r="23.8365" stroke="#F7F7F7" stroke-width="0.649684"/>
<path d="M157.937 46.5435C154.776 41.6606 148.377 44.3207 148.377 49.6399C148.377 53.6342 157.149 59.8823 157.937 60.6948C158.73 59.8823 167.065 53.6342 167.065 49.6399C167.065 44.361 161.104 41.6606 157.937 46.5435Z" fill="#FFBCBC"/>
<circle cx="157.721" cy="52.3347" r="21.0964" stroke="#F7F7F7" stroke-width="0.574998"/>
<path d="M213.842 10.6645C211.68 7.32484 207.304 9.14416 207.304 12.7821C207.304 15.514 213.303 19.7873 213.842 20.3429C214.385 19.7873 220.086 15.514 220.086 12.7821C220.086 9.17174 216.008 7.32484 213.842 10.6645Z" fill="#FFBCBC"/>
<circle cx="213.695" cy="14.6251" r="14.4285" stroke="#F7F7F7" stroke-width="0.393259"/>
<path d="M106.39 120.179C102.528 114.213 94.7105 117.463 94.7105 123.962C94.7105 128.842 105.428 136.476 106.39 137.469C107.36 136.476 117.544 128.842 117.544 123.962C117.544 117.512 110.26 114.213 106.39 120.179Z" fill="#FFBCBC"/>
<circle cx="106.127" cy="127.254" r="25.7759" stroke="#F7F7F7" stroke-width="0.702541"/>
<g opacity="0.5">
<path fill-rule="evenodd" clip-rule="evenodd" d="M129.626 357.642C129.823 354.262 130.497 351.433 131.059 349.86C132.162 352.619 132.708 355.267 132.892 357.682C135.307 357.867 137.956 358.412 140.714 359.515C139.141 360.077 136.312 360.751 132.932 360.949C132.743 364.537 131.821 367.325 131.059 368.753C130.132 366.158 129.709 363.489 129.599 360.975C127.085 360.865 124.416 360.442 121.821 359.515C123.249 358.754 126.037 357.831 129.626 357.642Z" fill="url(#paint0_linear)"/>
<path fill-rule="evenodd" clip-rule="evenodd" d="M102.964 335.404C103.095 333.154 103.544 331.271 103.918 330.224C104.652 332.06 105.015 333.823 105.138 335.431C106.746 335.553 108.508 335.916 110.345 336.651C109.298 337.025 107.414 337.473 105.165 337.605C105.039 339.993 104.425 341.849 103.918 342.8C103.301 341.073 103.019 339.296 102.946 337.623C101.273 337.549 99.4961 337.268 97.7688 336.651C98.7194 336.144 100.575 335.53 102.964 335.404Z" fill="url(#paint1_linear)"/>
<path fill-rule="evenodd" clip-rule="evenodd" d="M60.0046 319.561C60.2022 316.181 60.8761 313.351 61.4378 311.778C62.5412 314.537 63.0866 317.185 63.271 319.6C65.6861 319.785 68.3344 320.33 71.0929 321.434C69.5202 321.995 66.6908 322.669 63.3107 322.867C63.1222 326.455 62.1994 329.243 61.4378 330.671C60.5111 328.077 60.0882 325.407 59.9779 322.894C57.4639 322.783 54.7948 322.36 52.1999 321.434C53.6279 320.672 56.4161 319.749 60.0046 319.561Z" fill="url(#paint2_linear)"/>
<path fill-rule="evenodd" clip-rule="evenodd" d="M63.6824 397.243C63.9732 392.27 64.9646 388.108 65.791 385.794C67.4143 389.852 68.2167 393.749 68.488 397.302C72.0412 397.573 75.9376 398.376 79.996 399.999C77.6822 400.825 73.5194 401.817 68.5465 402.107C68.2692 407.387 66.9115 411.489 65.791 413.59C64.4275 409.772 63.8053 405.845 63.643 402.147C59.9445 401.985 56.0176 401.362 52.1999 399.999C54.3009 398.878 58.4029 397.521 63.6824 397.243Z" fill="url(#paint3_linear)"/>
<circle cx="93.8955" cy="367.838" r="1.82594" fill="#2F235A"/>
<circle cx="135.798" cy="315.484" r="1.82594" fill="#FE9076"/>
<circle cx="43.9567" cy="360.589" r="1.82594" fill="#FFA400"/>
<circle cx="125.79" cy="396" r="1.82594" fill="#23BB86"/>
<path d="M131.325 307.863C127.196 302.194 115.568 290.083 102.078 287" stroke="#FE9076" stroke-width="1.60277" stroke-linecap="round"/>
<path d="M36.2525 355.695C30.151 352.236 14.5584 346.011 0.999964 348.775" stroke="#FFA400" stroke-width="1.60277" stroke-linecap="round"/>
<path d="M119.523 401.304C116.396 404.062 108.874 411.897 103.798 421.167" stroke="#23BB86" stroke-width="1.60277" stroke-linecap="round"/>
</g>
<g opacity="0.5">
<path fill-rule="evenodd" clip-rule="evenodd" d="M166.43 293.416C166.102 287.798 164.982 283.095 164.048 280.481C162.214 285.066 161.307 289.468 161.001 293.482C156.987 293.789 152.585 294.695 148 296.529C150.614 297.463 155.317 298.583 160.935 298.911C161.248 304.875 162.782 309.509 164.048 311.883C165.588 307.57 166.291 303.134 166.474 298.956C170.653 298.772 175.089 298.069 179.402 296.529C177.029 295.263 172.395 293.729 166.43 293.416Z" fill="url(#paint4_linear)"/>
<path fill-rule="evenodd" clip-rule="evenodd" d="M210.745 256.453C210.526 252.713 209.781 249.583 209.159 247.843C207.939 250.895 207.335 253.825 207.131 256.497C204.459 256.701 201.529 257.304 198.477 258.525C200.217 259.147 203.348 259.892 207.087 260.111C207.296 264.081 208.317 267.166 209.159 268.745C210.185 265.875 210.653 262.922 210.775 260.14C213.556 260.018 216.509 259.55 219.38 258.525C217.8 257.683 214.715 256.662 210.745 256.453Z" fill="url(#paint5_linear)"/>
<path fill-rule="evenodd" clip-rule="evenodd" d="M282.148 230.12C281.82 224.501 280.699 219.798 279.766 217.184C277.932 221.769 277.025 226.171 276.719 230.186C272.705 230.492 268.303 231.399 263.718 233.233C266.332 234.166 271.035 235.286 276.653 235.615C276.966 241.579 278.5 246.213 279.766 248.587C281.306 244.274 282.009 239.838 282.192 235.659C286.371 235.476 290.807 234.773 295.12 233.233C292.747 231.967 288.113 230.433 282.148 230.12Z" fill="url(#paint6_linear)"/>
<path fill-rule="evenodd" clip-rule="evenodd" d="M276.035 359.237C275.552 350.972 273.904 344.053 272.53 340.207C269.832 346.952 268.498 353.428 268.048 359.334C262.142 359.785 255.666 361.119 248.92 363.817C252.766 365.191 259.685 366.838 267.95 367.322C268.411 376.097 270.668 382.915 272.53 386.407C274.797 380.062 275.831 373.535 276.1 367.387C282.248 367.118 288.775 366.083 295.12 363.817C291.628 361.955 284.81 359.698 276.035 359.237Z" fill="url(#paint7_linear)"/>
<circle r="3.03492" transform="matrix(-1 0 0 1 225.818 310.361)" fill="#2F235A"/>
<circle r="3.03492" transform="matrix(-1 0 0 1 156.17 223.343)" fill="#FE9076"/>
<circle r="3.03492" transform="matrix(-1 0 0 1 308.822 298.313)" fill="#FFA400"/>
<circle r="3.03492" transform="matrix(-1 0 0 1 172.806 357.17)" fill="#23BB86"/>
<path d="M163.606 210.677C170.468 201.253 189.796 181.125 212.217 176" stroke="#FE9076" stroke-width="1.60277" stroke-linecap="round"/>
<path d="M321.627 290.178C331.768 284.43 357.685 274.082 380.22 278.676" stroke="#FFA400" stroke-width="1.60277" stroke-linecap="round"/>
<path d="M183.222 365.986C188.419 370.571 200.921 383.593 209.358 399" stroke="#23BB86" stroke-width="1.60277" stroke-linecap="round"/>
</g>
<defs>
<linearGradient id="paint0_linear" x1="131.268" y1="351.871" x2="131.268" y2="369.61" gradientUnits="userSpaceOnUse">
<stop stop-color="#FFE89E"/>
<stop offset="1" stop-color="#FFBF1A"/>
</linearGradient>
<linearGradient id="paint1_linear" x1="104.057" y1="331.563" x2="104.057" y2="343.37" gradientUnits="userSpaceOnUse">
<stop stop-color="#FFE89E"/>
<stop offset="1" stop-color="#FFBF1A"/>
</linearGradient>
<linearGradient id="paint2_linear" x1="61.6464" y1="313.789" x2="61.6464" y2="331.529" gradientUnits="userSpaceOnUse">
<stop stop-color="#FFE89E"/>
<stop offset="1" stop-color="#FFBF1A"/>
</linearGradient>
<linearGradient id="paint3_linear" x1="66.098" y1="388.752" x2="66.098" y2="414.851" gradientUnits="userSpaceOnUse">
<stop stop-color="#FFE89E"/>
<stop offset="1" stop-color="#FFBF1A"/>
</linearGradient>
<linearGradient id="paint4_linear" x1="163.701" y1="283.823" x2="163.701" y2="313.308" gradientUnits="userSpaceOnUse">
<stop stop-color="#FFE89E"/>
<stop offset="1" stop-color="#FFBF1A"/>
</linearGradient>
<linearGradient id="paint5_linear" x1="208.929" y1="250.068" x2="208.929" y2="269.694" gradientUnits="userSpaceOnUse">
<stop stop-color="#FFE89E"/>
<stop offset="1" stop-color="#FFBF1A"/>
</linearGradient>
<linearGradient id="paint6_linear" x1="279.419" y1="220.527" x2="279.419" y2="250.012" gradientUnits="userSpaceOnUse">
<stop stop-color="#FFE89E"/>
<stop offset="1" stop-color="#FFBF1A"/>
</linearGradient>
<linearGradient id="paint7_linear" x1="272.02" y1="345.124" x2="272.02" y2="388.503" gradientUnits="userSpaceOnUse">
<stop stop-color="#FFE89E"/>
<stop offset="1" stop-color="#FFBF1A"/>
</linearGradient>
</defs>
</svg>
