<svg width="35" height="34" viewBox="0 0 35 34" fill="none" xmlns="http://www.w3.org/2000/svg">
<path d="M17.4 0.305176C8.12148 0.305176 0.599976 7.82668 0.599976 17.1052C0.599976 26.3837 8.12148 33.9052 17.4 33.9052C26.6785 33.9052 34.2 26.3837 34.2 17.1052C34.2 7.82668 26.6785 0.305176 17.4 0.305176ZM24.2337 14.0672C24.2407 14.2107 24.2425 14.3542 24.2425 14.4942C24.2425 18.8692 20.9157 23.9109 14.8292 23.9109C13.0307 23.9139 11.2697 23.3974 9.75773 22.4234C10.015 22.4549 10.2792 22.4672 10.547 22.4672C12.0975 22.4672 13.5237 21.9404 14.656 21.0514C13.966 21.0379 13.2974 20.8094 12.7434 20.3978C12.1894 19.9863 11.7777 19.4121 11.5655 18.7554C12.061 18.8497 12.5715 18.8299 13.0582 18.6977C12.3093 18.5462 11.6358 18.1404 11.152 17.5491C10.6681 16.9577 10.4037 16.2173 10.4035 15.4532V15.4129C10.8497 15.6597 11.3607 15.8102 11.9032 15.8277C11.2011 15.3603 10.7041 14.6424 10.5138 13.8207C10.3235 12.999 10.4543 12.1356 10.8795 11.4072C11.7106 12.4292 12.7472 13.2652 13.922 13.8612C15.0968 14.4572 16.3836 14.7998 17.6992 14.8669C17.532 14.157 17.604 13.4116 17.904 12.7468C18.204 12.082 18.7153 11.5349 19.3584 11.1906C20.0014 10.8464 20.7402 10.7242 21.4598 10.8431C22.1794 10.962 22.8396 11.3153 23.3377 11.8482C24.0783 11.7017 24.7884 11.43 25.4377 11.0449C25.1909 11.8117 24.6742 12.4627 23.9835 12.8772C24.6395 12.7982 25.28 12.6218 25.884 12.3539C25.4403 13.0187 24.8815 13.5989 24.2337 14.0672Z" fill="white"/>
</svg>
